# xmcd
#
# Track frame offsets: 
#        150
#        5460
#        23010
#        44805
#        65355
#        83760
#        104895
#        132067
#        157132
#        179114
#        204089
#        224324
#        243906
#        262026
#        281128
#        301295
#        323585
#
# Disc length: 4539 seconds
#
# Revision: 26
# Processed by: cddbd v1.5.2PL0 Copyright (c) Steve Scherf et al.
# Submitted via: ExactAudioCopy v0.99pb5
#
DISCID=f711b911
DTITLE=Schiller - Leben
DYEAR=2003
DGENRE=New Age
TTITLE0=Willkommen
TTITLE1=Sommerregen
TTITLE2=I've Seen It All (mit Maya Saban)
TTITLE3=Zukunft (aus dem Film - Gate To Heaven)
TTITLE4=Liebe (mit Mila Mar)
TTITLE5=Einklang
TTITLE6=I Miss You (mit  Maya Saban)
TTITLE7=Leben ... I Feel You (mit Heppner)
TTITLE8=Mittelerde
TTITLE9=The Smile (mit Sarah Brightman)
TTITLE10=Dreiklang
TTITLE11=Babel (mit Mila Mar)
TTITLE12=Desire (mit Veljanov)
TTITLE13=Stille
TTITLE14=Vergangenheit
TTITLE15=Delicately Yours (mit Kim Sanders)
TTITLE16=Ausklang
EXTD=YEAR: 2003
EXTT0=
EXTT1=
EXTT2=
EXTT3=
EXTT4=
EXTT5=
EXTT6=
EXTT7=
EXTT8=
EXTT9=
EXTT10=
EXTT11=
EXTT12=
EXTT13=
EXTT14=
EXTT15=
EXTT16=
PLAYORDER=
